# xmcd
#
# Track frame offsets: 
#        187
#        19412
#        44817
#        93700
#        112010
#        137392
#
# Disc length: 2345 seconds
#
# Revision: 7
# Processed by: cddbd v1.5.2PL0 Copyright (c) Steve Scherf et al.
# Submitted via: ExactAudioCopyFreeDBPlugin 1.0
#
DISCID=54092706
DTITLE=Led Zeppelin - Physical Graffiti [swan song 55XD-661~2 japan] d
DTITLE=isc 1
DYEAR=1975
DGENRE=Hard Rock
TTITLE0=Custard Pie
TTITLE1=The Rover
TTITLE2=In My Time Of Dying
TTITLE3=Houses Of The Holy
TTITLE4=Trampled Under Foot
TTITLE5=Kashmir
EXTD=YEAR: 1975
EXTT0=
EXTT1=
EXTT2=
EXTT3=
EXTT4=
EXTT5=
PLAYORDER=
